<mxfile host="65bd71144e">
    <diagram id="SmNrcTwLATv2hXPnK9XH" name="index_widescreen">
        <mxGraphModel dx="557" dy="430" grid="0" gridSize="15" guides="1" tooltips="1" connect="1" arrows="1" fold="1" page="1" pageScale="1" pageWidth="1600" pageHeight="900" math="0" shadow="0">
            <root>
                <mxCell id="0"/>
                <mxCell id="1" parent="0"/>
                <mxCell id="UBx6fptFdD3JUt5owHwW-8" value="First slide" style="html=1;shadow=0;dashed=0;strokeColor=none;strokeWidth=1;fillColor=#777777;fontColor=#555555;whiteSpace=wrap;align=center;verticalAlign=middle;fontStyle=0;fontSize=40;" parent="1" vertex="1">
                    <mxGeometry x="2" width="1598" height="350" as="geometry"/>
                </mxCell>
                <mxCell id="UBx6fptFdD3JUt5owHwW-9" value="" style="html=1;verticalLabelPosition=bottom;labelBackgroundColor=#ffffff;verticalAlign=top;shadow=0;dashed=0;strokeWidth=4;shape=mxgraph.ios7.misc.more;strokeColor=#a0a0a0;" parent="UBx6fptFdD3JUt5owHwW-8" vertex="1">
                    <mxGeometry x="1" y="0.5" width="7" height="14" relative="1" as="geometry">
                        <mxPoint x="-50" y="-7" as="offset"/>
                    </mxGeometry>
                </mxCell>
                <mxCell id="UBx6fptFdD3JUt5owHwW-10" value="" style="flipH=1;html=1;verticalLabelPosition=bottom;labelBackgroundColor=#ffffff;verticalAlign=top;shadow=0;dashed=0;strokeWidth=4;shape=mxgraph.ios7.misc.more;strokeColor=#a0a0a0;" parent="UBx6fptFdD3JUt5owHwW-8" vertex="1">
                    <mxGeometry y="0.5" width="7" height="14" relative="1" as="geometry">
                        <mxPoint x="43" y="-7" as="offset"/>
                    </mxGeometry>
                </mxCell>
                <mxCell id="UBx6fptFdD3JUt5owHwW-11" value="" style="html=1;shadow=0;strokeColor=none;fillColor=#ffffff;" parent="UBx6fptFdD3JUt5owHwW-8" vertex="1">
                    <mxGeometry x="0.5" y="1" width="30" height="4" relative="1" as="geometry">
                        <mxPoint x="-50" y="-20" as="offset"/>
                    </mxGeometry>
                </mxCell>
                <mxCell id="UBx6fptFdD3JUt5owHwW-12" value="" style="html=1;shadow=0;strokeColor=none;fillColor=#BBBBBB;" parent="UBx6fptFdD3JUt5owHwW-8" vertex="1">
                    <mxGeometry x="0.5" y="1" width="30" height="4" relative="1" as="geometry">
                        <mxPoint x="-15" y="-20" as="offset"/>
                    </mxGeometry>
                </mxCell>
                <mxCell id="UBx6fptFdD3JUt5owHwW-13" value="" style="html=1;shadow=0;strokeColor=none;fillColor=#BBBBBB;" parent="UBx6fptFdD3JUt5owHwW-8" vertex="1">
                    <mxGeometry x="0.5" y="1" width="30" height="4" relative="1" as="geometry">
                        <mxPoint x="20" y="-20" as="offset"/>
                    </mxGeometry>
                </mxCell>
                <mxCell id="yO5qnyc0Q4mU39YVHtKW-12" style="edgeStyle=orthogonalEdgeStyle;rounded=0;orthogonalLoop=1;jettySize=auto;html=1;exitX=0;exitY=0.5;exitDx=0;exitDy=0;entryX=1;entryY=0.5;entryDx=0;entryDy=0;" parent="UBx6fptFdD3JUt5owHwW-8" source="yO5qnyc0Q4mU39YVHtKW-8" target="yO5qnyc0Q4mU39YVHtKW-10" edge="1">
                    <mxGeometry relative="1" as="geometry"/>
                </mxCell>
                <mxCell id="yO5qnyc0Q4mU39YVHtKW-8" value="&lt;font style=&quot;font-size: 32px&quot;&gt;Sidebar&lt;br&gt;Menu&lt;/font&gt;" style="text;html=1;strokeColor=none;fillColor=none;align=center;verticalAlign=middle;whiteSpace=wrap;rounded=0;" parent="UBx6fptFdD3JUt5owHwW-8" vertex="1">
                    <mxGeometry x="221" y="19" width="143" height="90" as="geometry"/>
                </mxCell>
                <mxCell id="yO5qnyc0Q4mU39YVHtKW-9" value="" style="rounded=1;whiteSpace=wrap;html=1;" parent="UBx6fptFdD3JUt5owHwW-8" vertex="1">
                    <mxGeometry x="31" y="39" width="70" height="10" as="geometry"/>
                </mxCell>
                <mxCell id="yO5qnyc0Q4mU39YVHtKW-10" value="" style="rounded=1;whiteSpace=wrap;html=1;" parent="UBx6fptFdD3JUt5owHwW-8" vertex="1">
                    <mxGeometry x="31" y="59" width="70" height="10" as="geometry"/>
                </mxCell>
                <mxCell id="yO5qnyc0Q4mU39YVHtKW-11" value="" style="rounded=1;whiteSpace=wrap;html=1;" parent="UBx6fptFdD3JUt5owHwW-8" vertex="1">
                    <mxGeometry x="31" y="79" width="70" height="10" as="geometry"/>
                </mxCell>
                <mxCell id="YahGj4HRYd71WT_nHiro-5" value="&lt;font style=&quot;font-size: 24px&quot;&gt;Carousel header on all pages&lt;/font&gt;" style="shape=note;size=20;whiteSpace=wrap;html=1;shadow=0;dashed=0;fontSize=40;fontColor=#000000;strokeWidth=1;fillColor=#e3c800;strokeColor=#B09500;" parent="UBx6fptFdD3JUt5owHwW-8" vertex="1">
                    <mxGeometry x="1149" y="46" width="199" height="139" as="geometry"/>
                </mxCell>
                <mxCell id="YahGj4HRYd71WT_nHiro-18" value="&lt;font style=&quot;font-size: 24px&quot;&gt;left opening off-screen sidebar menu&amp;nbsp;&lt;/font&gt;" style="shape=note;size=20;whiteSpace=wrap;html=1;shadow=0;dashed=0;fontSize=40;fontColor=#000000;strokeWidth=1;fillColor=#e3c800;strokeColor=#B09500;" parent="UBx6fptFdD3JUt5owHwW-8" vertex="1">
                    <mxGeometry x="37" y="123" width="286" height="120" as="geometry"/>
                </mxCell>
                <mxCell id="L28LeEZ5guDqhcYUq2Hk-4" value="Logo" style="ellipse;whiteSpace=wrap;html=1;shadow=0;dashed=0;fontSize=40;fontColor=#555555;strokeWidth=1;fillColor=#777777;" parent="UBx6fptFdD3JUt5owHwW-8" vertex="1">
                    <mxGeometry x="641" y="75" width="316" height="200" as="geometry"/>
                </mxCell>
                <mxCell id="yO5qnyc0Q4mU39YVHtKW-13" value="" style="verticalLabelPosition=bottom;shadow=0;dashed=0;align=center;html=1;verticalAlign=top;strokeWidth=1;shape=mxgraph.mockup.graphics.simpleIcon;strokeColor=#999999;" parent="1" vertex="1">
                    <mxGeometry x="63" y="388" width="454" height="244" as="geometry"/>
                </mxCell>
                <mxCell id="yO5qnyc0Q4mU39YVHtKW-15" value="" style="strokeWidth=1;shadow=0;dashed=0;align=center;html=1;shape=mxgraph.mockup.containers.marginRect2;rectMarginLeft=67;strokeColor=#666666;gradientColor=none;fontSize=19;" parent="1" vertex="1">
                    <mxGeometry x="570" y="388" width="966" height="360" as="geometry"/>
                </mxCell>
                <mxCell id="yO5qnyc0Q4mU39YVHtKW-16" value="Tab 1" style="strokeColor=inherit;fillColor=inherit;gradientColor=inherit;strokeWidth=1;shadow=0;dashed=0;align=center;html=1;shape=mxgraph.mockup.containers.rrect;rSize=0;fontSize=17;fontColor=#666666;" parent="yO5qnyc0Q4mU39YVHtKW-15" vertex="1">
                    <mxGeometry width="60" height="25" relative="1" as="geometry">
                        <mxPoint y="10" as="offset"/>
                    </mxGeometry>
                </mxCell>
                <mxCell id="yO5qnyc0Q4mU39YVHtKW-17" value="Tab 2" style="strokeWidth=1;shadow=0;dashed=0;align=center;html=1;shape=mxgraph.mockup.containers.rrect;rSize=0;fontSize=17;fontColor=#ffffff;strokeColor=#008cff;fillColor=#008cff;" parent="yO5qnyc0Q4mU39YVHtKW-15" vertex="1">
                    <mxGeometry width="60" height="25" relative="1" as="geometry">
                        <mxPoint y="40" as="offset"/>
                    </mxGeometry>
                </mxCell>
                <mxCell id="yO5qnyc0Q4mU39YVHtKW-18" value="Tab 3" style="strokeColor=inherit;fillColor=inherit;gradientColor=inherit;strokeWidth=1;shadow=0;dashed=0;align=center;html=1;shape=mxgraph.mockup.containers.rrect;rSize=0;fontSize=17;fontColor=#666666;" parent="yO5qnyc0Q4mU39YVHtKW-15" vertex="1">
                    <mxGeometry width="60" height="25" relative="1" as="geometry">
                        <mxPoint y="70" as="offset"/>
                    </mxGeometry>
                </mxCell>
                <mxCell id="yO5qnyc0Q4mU39YVHtKW-19" value="" style="strokeWidth=1;shadow=0;dashed=0;align=center;html=1;shape=mxgraph.mockup.containers.leftButton;rSize=5;strokeColor=#008cff;fillColor=#008cff;resizeHeight=1;movable=0;deletable=0;" parent="yO5qnyc0Q4mU39YVHtKW-15" vertex="1">
                    <mxGeometry width="7" height="360" relative="1" as="geometry">
                        <mxPoint x="60" as="offset"/>
                    </mxGeometry>
                </mxCell>
                <mxCell id="yO5qnyc0Q4mU39YVHtKW-14" value="Lorem ipsum dolor sit amet, consectetur adipisicing elit, sed do eiusmod tempor incididunt ut labore et dolore magna aliqua. Ut enim ad minim veniam, quis nostrud exercitation ullamco laboris nisi ut aliquip ex ea commodo consequat. Duis aute irure dolor in reprehenderit in voluptate velit esse cillum dolore eu fugiat nulla pariatur. Excepteur sint occaecat cupidatat non proident, sunt in culpa qui officia deserunt mollit anim id est laborum.&#10;Sed ut perspiciatis unde omnis iste natus error sit voluptatem accusantium doloremque laudantium, totam rem aperiam, eaque ipsa quae ab illo inventore veritatis et quasi architecto beatae vitae dicta sunt explicabo. Nemo enim ipsam voluptatem quia voluptas sit aspernatur aut odit aut fugit, sed quia consequuntur magni dolores eos qui ratione voluptatem sequi nesciunt. Neque porro quisquam est, qui dolorem ipsum quia dolor sit amet, consectetur, adipisci velit, sed quia non numquam eius modi tempora incidunt ut labore et dolore magnam aliquam quaerat voluptatem. Ut enim ad minima veniam, quis nostrum exercitationem ullam corporis suscipit laboriosam, nisi ut aliquid ex ea commodi consequatur? Quis autem vel eum iure reprehenderit qui in ea voluptate velit esse quam nihil molestiae consequatur, vel illum qui dolorem eum fugiat quo voluptas nulla pariatur?" style="text;spacingTop=-5;whiteSpace=wrap;html=1;align=left;fontSize=19;fontFamily=Helvetica;fillColor=none;strokeColor=none;" parent="yO5qnyc0Q4mU39YVHtKW-15" vertex="1">
                    <mxGeometry x="89" y="6.545454545454546" width="865" height="341.8181818181818" as="geometry"/>
                </mxCell>
            </root>
        </mxGraphModel>
    </diagram>
    <diagram name="widescreen_2" id="JMugrL7sWjvVX7na7IYw">
        <mxGraphModel dx="2556" dy="1428" grid="0" gridSize="15" guides="1" tooltips="1" connect="1" arrows="1" fold="1" page="1" pageScale="1" pageWidth="1600" pageHeight="900" math="0" shadow="0">
            <root>
                <mxCell id="IlI14rlhjdCP-Omh8kfS-0"/>
                <mxCell id="IlI14rlhjdCP-Omh8kfS-1" parent="IlI14rlhjdCP-Omh8kfS-0"/>
                <mxCell id="IlI14rlhjdCP-Omh8kfS-2" value="First slide" style="html=1;shadow=0;dashed=0;strokeColor=none;strokeWidth=1;fillColor=#777777;fontColor=#555555;whiteSpace=wrap;align=center;verticalAlign=middle;fontStyle=0;fontSize=40;" parent="IlI14rlhjdCP-Omh8kfS-1" vertex="1">
                    <mxGeometry x="2" width="1598" height="310" as="geometry"/>
                </mxCell>
                <mxCell id="IlI14rlhjdCP-Omh8kfS-3" value="" style="html=1;verticalLabelPosition=bottom;labelBackgroundColor=#ffffff;verticalAlign=top;shadow=0;dashed=0;strokeWidth=4;shape=mxgraph.ios7.misc.more;strokeColor=#a0a0a0;" parent="IlI14rlhjdCP-Omh8kfS-2" vertex="1">
                    <mxGeometry x="1" y="0.5" width="7" height="14" relative="1" as="geometry">
                        <mxPoint x="-50" y="-7" as="offset"/>
                    </mxGeometry>
                </mxCell>
                <mxCell id="IlI14rlhjdCP-Omh8kfS-4" value="" style="flipH=1;html=1;verticalLabelPosition=bottom;labelBackgroundColor=#ffffff;verticalAlign=top;shadow=0;dashed=0;strokeWidth=4;shape=mxgraph.ios7.misc.more;strokeColor=#a0a0a0;" parent="IlI14rlhjdCP-Omh8kfS-2" vertex="1">
                    <mxGeometry y="0.5" width="7" height="14" relative="1" as="geometry">
                        <mxPoint x="43" y="-7" as="offset"/>
                    </mxGeometry>
                </mxCell>
                <mxCell id="IlI14rlhjdCP-Omh8kfS-5" value="" style="html=1;shadow=0;strokeColor=none;fillColor=#ffffff;" parent="IlI14rlhjdCP-Omh8kfS-2" vertex="1">
                    <mxGeometry x="0.5" y="1" width="30" height="4" relative="1" as="geometry">
                        <mxPoint x="-50" y="-20" as="offset"/>
                    </mxGeometry>
                </mxCell>
                <mxCell id="IlI14rlhjdCP-Omh8kfS-6" value="" style="html=1;shadow=0;strokeColor=none;fillColor=#BBBBBB;" parent="IlI14rlhjdCP-Omh8kfS-2" vertex="1">
                    <mxGeometry x="0.5" y="1" width="30" height="4" relative="1" as="geometry">
                        <mxPoint x="-15" y="-20" as="offset"/>
                    </mxGeometry>
                </mxCell>
                <mxCell id="IlI14rlhjdCP-Omh8kfS-7" value="" style="html=1;shadow=0;strokeColor=none;fillColor=#BBBBBB;" parent="IlI14rlhjdCP-Omh8kfS-2" vertex="1">
                    <mxGeometry x="0.5" y="1" width="30" height="4" relative="1" as="geometry">
                        <mxPoint x="20" y="-20" as="offset"/>
                    </mxGeometry>
                </mxCell>
                <mxCell id="IlI14rlhjdCP-Omh8kfS-8" style="edgeStyle=orthogonalEdgeStyle;rounded=0;orthogonalLoop=1;jettySize=auto;html=1;exitX=0;exitY=0.5;exitDx=0;exitDy=0;entryX=1;entryY=0.5;entryDx=0;entryDy=0;" parent="IlI14rlhjdCP-Omh8kfS-2" source="IlI14rlhjdCP-Omh8kfS-9" target="IlI14rlhjdCP-Omh8kfS-11" edge="1">
                    <mxGeometry relative="1" as="geometry"/>
                </mxCell>
                <mxCell id="IlI14rlhjdCP-Omh8kfS-9" value="&lt;font style=&quot;font-size: 32px&quot;&gt;Sidebar&lt;br&gt;Menu&lt;/font&gt;" style="text;html=1;strokeColor=none;fillColor=none;align=center;verticalAlign=middle;whiteSpace=wrap;rounded=0;" parent="IlI14rlhjdCP-Omh8kfS-2" vertex="1">
                    <mxGeometry x="221" y="19" width="143" height="90" as="geometry"/>
                </mxCell>
                <mxCell id="IlI14rlhjdCP-Omh8kfS-10" value="" style="rounded=1;whiteSpace=wrap;html=1;" parent="IlI14rlhjdCP-Omh8kfS-2" vertex="1">
                    <mxGeometry x="31" y="39" width="70" height="10" as="geometry"/>
                </mxCell>
                <mxCell id="IlI14rlhjdCP-Omh8kfS-11" value="" style="rounded=1;whiteSpace=wrap;html=1;" parent="IlI14rlhjdCP-Omh8kfS-2" vertex="1">
                    <mxGeometry x="31" y="59" width="70" height="10" as="geometry"/>
                </mxCell>
                <mxCell id="IlI14rlhjdCP-Omh8kfS-12" value="" style="rounded=1;whiteSpace=wrap;html=1;" parent="IlI14rlhjdCP-Omh8kfS-2" vertex="1">
                    <mxGeometry x="31" y="79" width="70" height="10" as="geometry"/>
                </mxCell>
                <mxCell id="esDoToG7L6VPXxVDfKZ--0" value="&lt;b&gt;&lt;font style=&quot;font-size: 20px&quot;&gt;Card title&lt;/font&gt;&lt;/b&gt;&lt;br style=&quot;font-size: 14px&quot;&gt;&lt;br style=&quot;font-size: 14px&quot;&gt;Some quick example text to build on the card title and make up the bulk of the card's content." style="html=1;shadow=0;dashed=0;shape=mxgraph.bootstrap.rrect;rSize=5;strokeColor=#DFDFDF;html=1;whiteSpace=wrap;fillColor=#ffffff;fontColor=#000000;verticalAlign=bottom;align=left;spacing=20;spacingBottom=50;fontSize=14;" parent="IlI14rlhjdCP-Omh8kfS-1" vertex="1">
                    <mxGeometry x="51" y="353" width="321" height="439" as="geometry"/>
                </mxCell>
                <mxCell id="esDoToG7L6VPXxVDfKZ--1" value="Image cap" style="html=1;shadow=0;dashed=0;shape=mxgraph.bootstrap.topButton;rSize=5;perimeter=none;whiteSpace=wrap;fillColor=#868E96;strokeColor=#DFDFDF;fontColor=#DEE2E6;resizeWidth=1;fontSize=18;" parent="esDoToG7L6VPXxVDfKZ--0" vertex="1">
                    <mxGeometry width="321" height="180" relative="1" as="geometry"/>
                </mxCell>
                <mxCell id="esDoToG7L6VPXxVDfKZ--3" value="&lt;b&gt;&lt;font style=&quot;font-size: 20px&quot;&gt;Card title&lt;/font&gt;&lt;/b&gt;&lt;br style=&quot;font-size: 14px&quot;&gt;&lt;br style=&quot;font-size: 14px&quot;&gt;Some quick example text to build on the card title and make up the bulk of the card's content." style="html=1;shadow=0;dashed=0;shape=mxgraph.bootstrap.rrect;rSize=5;strokeColor=#DFDFDF;html=1;whiteSpace=wrap;fillColor=#ffffff;fontColor=#000000;verticalAlign=bottom;align=left;spacing=20;spacingBottom=50;fontSize=14;" parent="IlI14rlhjdCP-Omh8kfS-1" vertex="1">
                    <mxGeometry x="439" y="353" width="321" height="439" as="geometry"/>
                </mxCell>
                <mxCell id="esDoToG7L6VPXxVDfKZ--4" value="Image cap" style="html=1;shadow=0;dashed=0;shape=mxgraph.bootstrap.topButton;rSize=5;perimeter=none;whiteSpace=wrap;fillColor=#868E96;strokeColor=#DFDFDF;fontColor=#DEE2E6;resizeWidth=1;fontSize=18;" parent="esDoToG7L6VPXxVDfKZ--3" vertex="1">
                    <mxGeometry width="321" height="180" relative="1" as="geometry"/>
                </mxCell>
                <mxCell id="l3tW-ZlS6dcx2_qDRxDm-0" value="&lt;font style=&quot;font-size: 24px&quot;&gt;Cards page with facts about tourist locations in Madagascar&lt;/font&gt;" style="shape=note;size=20;whiteSpace=wrap;html=1;shadow=0;dashed=0;fontSize=40;fontColor=#000000;strokeWidth=1;fillColor=#e3c800;strokeColor=#B09500;" parent="esDoToG7L6VPXxVDfKZ--3" vertex="1">
                    <mxGeometry x="-162" y="-86" width="266" height="188" as="geometry"/>
                </mxCell>
                <mxCell id="esDoToG7L6VPXxVDfKZ--6" value="&lt;b&gt;&lt;font style=&quot;font-size: 20px&quot;&gt;Card title&lt;/font&gt;&lt;/b&gt;&lt;br style=&quot;font-size: 14px&quot;&gt;&lt;br style=&quot;font-size: 14px&quot;&gt;Some quick example text to build on the card title and make up the bulk of the card's content." style="html=1;shadow=0;dashed=0;shape=mxgraph.bootstrap.rrect;rSize=5;strokeColor=#DFDFDF;html=1;whiteSpace=wrap;fillColor=#ffffff;fontColor=#000000;verticalAlign=bottom;align=left;spacing=20;spacingBottom=50;fontSize=14;" parent="IlI14rlhjdCP-Omh8kfS-1" vertex="1">
                    <mxGeometry x="809" y="353" width="321" height="439" as="geometry"/>
                </mxCell>
                <mxCell id="esDoToG7L6VPXxVDfKZ--7" value="Image cap" style="html=1;shadow=0;dashed=0;shape=mxgraph.bootstrap.topButton;rSize=5;perimeter=none;whiteSpace=wrap;fillColor=#868E96;strokeColor=#DFDFDF;fontColor=#DEE2E6;resizeWidth=1;fontSize=18;" parent="esDoToG7L6VPXxVDfKZ--6" vertex="1">
                    <mxGeometry width="321" height="180" relative="1" as="geometry"/>
                </mxCell>
                <mxCell id="esDoToG7L6VPXxVDfKZ--9" value="&lt;b&gt;&lt;font style=&quot;font-size: 20px&quot;&gt;Card title&lt;/font&gt;&lt;/b&gt;&lt;br style=&quot;font-size: 14px&quot;&gt;&lt;br style=&quot;font-size: 14px&quot;&gt;Some quick example text to build on the card title and make up the bulk of the card's content." style="html=1;shadow=0;dashed=0;shape=mxgraph.bootstrap.rrect;rSize=5;strokeColor=#DFDFDF;html=1;whiteSpace=wrap;fillColor=#ffffff;fontColor=#000000;verticalAlign=bottom;align=left;spacing=20;spacingBottom=50;fontSize=14;" parent="IlI14rlhjdCP-Omh8kfS-1" vertex="1">
                    <mxGeometry x="1185" y="353" width="321" height="439" as="geometry"/>
                </mxCell>
                <mxCell id="esDoToG7L6VPXxVDfKZ--10" value="Image cap" style="html=1;shadow=0;dashed=0;shape=mxgraph.bootstrap.topButton;rSize=5;perimeter=none;whiteSpace=wrap;fillColor=#868E96;strokeColor=#DFDFDF;fontColor=#DEE2E6;resizeWidth=1;fontSize=18;" parent="esDoToG7L6VPXxVDfKZ--9" vertex="1">
                    <mxGeometry width="321" height="180" relative="1" as="geometry"/>
                </mxCell>
                <mxCell id="jdJJbwHdDUIjVqG_0cpa-0" value="Logo" style="ellipse;whiteSpace=wrap;html=1;shadow=0;dashed=0;fontSize=40;fontColor=#555555;strokeWidth=1;fillColor=#777777;" parent="IlI14rlhjdCP-Omh8kfS-1" vertex="1">
                    <mxGeometry x="667" y="66.5" width="261" height="177" as="geometry"/>
                </mxCell>
            </root>
        </mxGraphModel>
    </diagram>
    <diagram name="widescreen_3" id="pL563REmt8m58jPLJSL5">
        <mxGraphModel dx="1238" dy="714" grid="0" gridSize="15" guides="1" tooltips="1" connect="1" arrows="1" fold="1" page="1" pageScale="1" pageWidth="1600" pageHeight="900" math="0" shadow="0">
            <root>
                <mxCell id="lrpw9z-BdOiZerKYOcDt-0"/>
                <mxCell id="lrpw9z-BdOiZerKYOcDt-1" parent="lrpw9z-BdOiZerKYOcDt-0"/>
                <mxCell id="lrpw9z-BdOiZerKYOcDt-2" value="First slide" style="html=1;shadow=0;dashed=0;strokeColor=none;strokeWidth=1;fillColor=#777777;fontColor=#555555;whiteSpace=wrap;align=center;verticalAlign=middle;fontStyle=0;fontSize=40;" vertex="1" parent="lrpw9z-BdOiZerKYOcDt-1">
                    <mxGeometry x="2" width="1598" height="310" as="geometry"/>
                </mxCell>
                <mxCell id="lrpw9z-BdOiZerKYOcDt-3" value="" style="html=1;verticalLabelPosition=bottom;labelBackgroundColor=#ffffff;verticalAlign=top;shadow=0;dashed=0;strokeWidth=4;shape=mxgraph.ios7.misc.more;strokeColor=#a0a0a0;" vertex="1" parent="lrpw9z-BdOiZerKYOcDt-2">
                    <mxGeometry x="1" y="0.5" width="7" height="14" relative="1" as="geometry">
                        <mxPoint x="-50" y="-7" as="offset"/>
                    </mxGeometry>
                </mxCell>
                <mxCell id="lrpw9z-BdOiZerKYOcDt-4" value="" style="flipH=1;html=1;verticalLabelPosition=bottom;labelBackgroundColor=#ffffff;verticalAlign=top;shadow=0;dashed=0;strokeWidth=4;shape=mxgraph.ios7.misc.more;strokeColor=#a0a0a0;" vertex="1" parent="lrpw9z-BdOiZerKYOcDt-2">
                    <mxGeometry y="0.5" width="7" height="14" relative="1" as="geometry">
                        <mxPoint x="43" y="-7" as="offset"/>
                    </mxGeometry>
                </mxCell>
                <mxCell id="lrpw9z-BdOiZerKYOcDt-5" value="" style="html=1;shadow=0;strokeColor=none;fillColor=#ffffff;" vertex="1" parent="lrpw9z-BdOiZerKYOcDt-2">
                    <mxGeometry x="0.5" y="1" width="30" height="4" relative="1" as="geometry">
                        <mxPoint x="-50" y="-20" as="offset"/>
                    </mxGeometry>
                </mxCell>
                <mxCell id="lrpw9z-BdOiZerKYOcDt-6" value="" style="html=1;shadow=0;strokeColor=none;fillColor=#BBBBBB;" vertex="1" parent="lrpw9z-BdOiZerKYOcDt-2">
                    <mxGeometry x="0.5" y="1" width="30" height="4" relative="1" as="geometry">
                        <mxPoint x="-15" y="-20" as="offset"/>
                    </mxGeometry>
                </mxCell>
                <mxCell id="lrpw9z-BdOiZerKYOcDt-7" value="" style="html=1;shadow=0;strokeColor=none;fillColor=#BBBBBB;" vertex="1" parent="lrpw9z-BdOiZerKYOcDt-2">
                    <mxGeometry x="0.5" y="1" width="30" height="4" relative="1" as="geometry">
                        <mxPoint x="20" y="-20" as="offset"/>
                    </mxGeometry>
                </mxCell>
                <mxCell id="lrpw9z-BdOiZerKYOcDt-8" style="edgeStyle=orthogonalEdgeStyle;rounded=0;orthogonalLoop=1;jettySize=auto;html=1;exitX=0;exitY=0.5;exitDx=0;exitDy=0;entryX=1;entryY=0.5;entryDx=0;entryDy=0;" edge="1" parent="lrpw9z-BdOiZerKYOcDt-2" source="lrpw9z-BdOiZerKYOcDt-9" target="lrpw9z-BdOiZerKYOcDt-11">
                    <mxGeometry relative="1" as="geometry"/>
                </mxCell>
                <mxCell id="lrpw9z-BdOiZerKYOcDt-9" value="&lt;font style=&quot;font-size: 32px&quot;&gt;Sidebar&lt;br&gt;Menu&lt;/font&gt;" style="text;html=1;strokeColor=none;fillColor=none;align=center;verticalAlign=middle;whiteSpace=wrap;rounded=0;" vertex="1" parent="lrpw9z-BdOiZerKYOcDt-2">
                    <mxGeometry x="221" y="19" width="143" height="90" as="geometry"/>
                </mxCell>
                <mxCell id="lrpw9z-BdOiZerKYOcDt-10" value="" style="rounded=1;whiteSpace=wrap;html=1;" vertex="1" parent="lrpw9z-BdOiZerKYOcDt-2">
                    <mxGeometry x="31" y="39" width="70" height="10" as="geometry"/>
                </mxCell>
                <mxCell id="lrpw9z-BdOiZerKYOcDt-11" value="" style="rounded=1;whiteSpace=wrap;html=1;" vertex="1" parent="lrpw9z-BdOiZerKYOcDt-2">
                    <mxGeometry x="31" y="59" width="70" height="10" as="geometry"/>
                </mxCell>
                <mxCell id="lrpw9z-BdOiZerKYOcDt-12" value="" style="rounded=1;whiteSpace=wrap;html=1;" vertex="1" parent="lrpw9z-BdOiZerKYOcDt-2">
                    <mxGeometry x="31" y="79" width="70" height="10" as="geometry"/>
                </mxCell>
                <mxCell id="AHBE4rAFxMyUWc05FQ8q-0" value="Logo" style="ellipse;whiteSpace=wrap;html=1;shadow=0;dashed=0;fontSize=40;fontColor=#555555;strokeWidth=1;fillColor=#777777;" vertex="1" parent="lrpw9z-BdOiZerKYOcDt-2">
                    <mxGeometry x="665" y="66.5" width="261" height="177" as="geometry"/>
                </mxCell>
                <mxCell id="NUZz0dlxcP3T4lzP9OKs-0" value="Lorem ipsum dolor sit amet, consectetur adipisicing elit, sed do eiusmod tempor incididunt ut labore et dolore magna aliqua. Ut enim ad minim veniam, quis nostrud exercitation ullamco laboris nisi ut aliquip ex ea commodo consequat. Duis aute irure dolor in reprehenderit in voluptate velit esse cillum dolore eu fugiat nulla pariatur. Excepteur sint occaecat cupidatat non proident, sunt in culpa qui officia deserunt mollit anim id est laborum.&#10;Sed ut perspiciatis unde omnis iste natus error sit voluptatem accusantium doloremque laudantium, totam rem aperiam, eaque ipsa quae ab illo inventore veritatis et quasi architecto beatae vitae dicta sunt explicabo. Nemo enim ipsam voluptatem quia voluptas sit aspernatur aut odit aut fugit, sed quia consequuntur magni dolores eos qui ratione voluptatem sequi nesciunt. Neque porro quisquam est, qui dolorem ipsum quia dolor sit amet, consectetur, adipisci velit, sed quia non numquam eius modi tempora incidunt ut labore et dolore magnam aliquam quaerat voluptatem. Ut enim ad minima veniam, quis nostrum exercitationem ullam corporis suscipit laboriosam, nisi ut aliquid ex ea commodi consequatur? Quis autem vel eum iure reprehenderit qui in ea voluptate velit esse quam nihil molestiae consequatur, vel illum qui dolorem eum fugiat quo voluptas nulla pariatur?" style="text;spacingTop=-5;whiteSpace=wrap;html=1;align=left;fontSize=19;fontFamily=Helvetica;fillColor=none;strokeColor=none;" vertex="1" parent="lrpw9z-BdOiZerKYOcDt-1">
                    <mxGeometry x="568" y="335" width="961" height="298" as="geometry"/>
                </mxCell>
                <mxCell id="NUZz0dlxcP3T4lzP9OKs-1" value="Lorem ipsum dolor sit amet, consectetur adipisicing elit, sed do eiusmod tempor incididunt ut labore et dolore magna aliqua. Ut enim ad minim veniam, quis nostrud exercitation ullamco laboris nisi ut aliquip ex ea commodo consequat. Duis aute irure dolor in reprehenderit in voluptate velit esse cillum dolore eu fugiat nulla pariatur. Excepteur sint occaecat cupidatat non proident, sunt in culpa qui officia deserunt mollit anim id est laborum.&lt;br&gt;Sed ut perspiciatis unde omnis iste natus error sit voluptatem accusantium doloremque laudantium, totam rem aperiam, eaque ipsa quae ab illo inventore veritatis et quasi architecto beatae vitae dicta sunt explicabo. Nemo enim ipsam voluptatem quia voluptas sit aspernatur aut odit aut fugit, sed quia consequuntur magni dolores eos qui ratione voluptatem sequi nesciunt. Neque porro quisquam est, qui dolorem ipsum quia dolor sit amet, consectetur, adipisci velit, sed quia non numquam eius modi tempora incidunt ut labore et dolore magnam aliquam quaerat voluptatem.&amp;nbsp;" style="text;spacingTop=-5;whiteSpace=wrap;html=1;align=left;fontSize=19;fontFamily=Helvetica;fillColor=none;strokeColor=none;" vertex="1" parent="lrpw9z-BdOiZerKYOcDt-1">
                    <mxGeometry x="26" y="635" width="961" height="246" as="geometry"/>
                </mxCell>
                <mxCell id="DvEAqHPj2twDCfXCwYJV-0" value="" style="verticalLabelPosition=bottom;shadow=0;dashed=0;align=center;html=1;verticalAlign=top;strokeWidth=1;shape=mxgraph.mockup.graphics.simpleIcon;strokeColor=#999999;" vertex="1" parent="lrpw9z-BdOiZerKYOcDt-1">
                    <mxGeometry x="75" y="347" width="454" height="244" as="geometry"/>
                </mxCell>
                <mxCell id="DvEAqHPj2twDCfXCwYJV-1" value="" style="verticalLabelPosition=bottom;shadow=0;dashed=0;align=center;html=1;verticalAlign=top;strokeWidth=1;shape=mxgraph.mockup.graphics.simpleIcon;strokeColor=#999999;" vertex="1" parent="lrpw9z-BdOiZerKYOcDt-1">
                    <mxGeometry x="1038" y="631" width="454" height="244" as="geometry"/>
                </mxCell>
                <mxCell id="taBNwTbLRzA-EtxQ9IZ_-0" value="&lt;font style=&quot;font-size: 24px&quot;&gt;Informational text with pictures&lt;/font&gt;" style="shape=note;size=20;whiteSpace=wrap;html=1;shadow=0;dashed=0;fontSize=40;fontColor=#000000;strokeWidth=1;fillColor=#e3c800;strokeColor=#B09500;" vertex="1" parent="lrpw9z-BdOiZerKYOcDt-1">
                    <mxGeometry x="878" y="564" width="219" height="139" as="geometry"/>
                </mxCell>
            </root>
        </mxGraphModel>
    </diagram>
    <diagram id="_G8DowNWFTnrf3NOfuHK" name="index_phonescreen">
        <mxGraphModel dx="1238" dy="714" grid="1" gridSize="10" guides="1" tooltips="1" connect="1" arrows="1" fold="1" page="1" pageScale="1" pageWidth="900" pageHeight="1600" math="0" shadow="0">
            <root>
                <mxCell id="TJQuIUuagmnC4SXKTq1S-0"/>
                <mxCell id="TJQuIUuagmnC4SXKTq1S-1" parent="TJQuIUuagmnC4SXKTq1S-0"/>
                <mxCell id="3mEyzAKPt5T8grxcyZEd-6" value="First slide" style="html=1;shadow=0;dashed=0;strokeColor=none;strokeWidth=1;fillColor=#777777;fontColor=#555555;whiteSpace=wrap;align=center;verticalAlign=middle;fontStyle=0;fontSize=40;" parent="TJQuIUuagmnC4SXKTq1S-1" vertex="1">
                    <mxGeometry width="900" height="430" as="geometry"/>
                </mxCell>
                <mxCell id="3mEyzAKPt5T8grxcyZEd-7" value="" style="html=1;verticalLabelPosition=bottom;labelBackgroundColor=#ffffff;verticalAlign=top;shadow=0;dashed=0;strokeWidth=4;shape=mxgraph.ios7.misc.more;strokeColor=#a0a0a0;" parent="3mEyzAKPt5T8grxcyZEd-6" vertex="1">
                    <mxGeometry x="1" y="0.5" width="7" height="14" relative="1" as="geometry">
                        <mxPoint x="-50" y="-7" as="offset"/>
                    </mxGeometry>
                </mxCell>
                <mxCell id="3mEyzAKPt5T8grxcyZEd-8" value="" style="flipH=1;html=1;verticalLabelPosition=bottom;labelBackgroundColor=#ffffff;verticalAlign=top;shadow=0;dashed=0;strokeWidth=4;shape=mxgraph.ios7.misc.more;strokeColor=#a0a0a0;" parent="3mEyzAKPt5T8grxcyZEd-6" vertex="1">
                    <mxGeometry y="0.5" width="7" height="14" relative="1" as="geometry">
                        <mxPoint x="43" y="-7" as="offset"/>
                    </mxGeometry>
                </mxCell>
                <mxCell id="3mEyzAKPt5T8grxcyZEd-9" value="" style="html=1;shadow=0;strokeColor=none;fillColor=#ffffff;" parent="3mEyzAKPt5T8grxcyZEd-6" vertex="1">
                    <mxGeometry x="0.5" y="1" width="30" height="4" relative="1" as="geometry">
                        <mxPoint x="-50" y="-20" as="offset"/>
                    </mxGeometry>
                </mxCell>
                <mxCell id="3mEyzAKPt5T8grxcyZEd-10" value="" style="html=1;shadow=0;strokeColor=none;fillColor=#BBBBBB;" parent="3mEyzAKPt5T8grxcyZEd-6" vertex="1">
                    <mxGeometry x="0.5" y="1" width="30" height="4" relative="1" as="geometry">
                        <mxPoint x="-15" y="-20" as="offset"/>
                    </mxGeometry>
                </mxCell>
                <mxCell id="3mEyzAKPt5T8grxcyZEd-11" value="" style="html=1;shadow=0;strokeColor=none;fillColor=#BBBBBB;" parent="3mEyzAKPt5T8grxcyZEd-6" vertex="1">
                    <mxGeometry x="0.5" y="1" width="30" height="4" relative="1" as="geometry">
                        <mxPoint x="20" y="-20" as="offset"/>
                    </mxGeometry>
                </mxCell>
                <mxCell id="3mEyzAKPt5T8grxcyZEd-4" value="&lt;font style=&quot;font-size: 32px&quot;&gt;Sidebar&lt;br&gt;Menu&lt;/font&gt;" style="text;html=1;strokeColor=none;fillColor=none;align=center;verticalAlign=middle;whiteSpace=wrap;rounded=0;" parent="3mEyzAKPt5T8grxcyZEd-6" vertex="1">
                    <mxGeometry x="120" y="70" width="160" height="90" as="geometry"/>
                </mxCell>
                <mxCell id="3mEyzAKPt5T8grxcyZEd-12" value="" style="rounded=1;whiteSpace=wrap;html=1;" parent="3mEyzAKPt5T8grxcyZEd-6" vertex="1">
                    <mxGeometry x="30" y="30" width="70" height="10" as="geometry"/>
                </mxCell>
                <mxCell id="oTwdOAKTLMKOyWRaAy1v-0" value="Logo" style="ellipse;whiteSpace=wrap;html=1;shadow=0;dashed=0;fontSize=40;fontColor=#555555;strokeWidth=1;fillColor=#777777;" vertex="1" parent="3mEyzAKPt5T8grxcyZEd-6">
                    <mxGeometry x="320" y="120" width="261" height="177" as="geometry"/>
                </mxCell>
                <mxCell id="3mEyzAKPt5T8grxcyZEd-13" value="" style="rounded=1;whiteSpace=wrap;html=1;" parent="TJQuIUuagmnC4SXKTq1S-1" vertex="1">
                    <mxGeometry x="30" y="50" width="70" height="10" as="geometry"/>
                </mxCell>
                <mxCell id="3mEyzAKPt5T8grxcyZEd-14" value="" style="rounded=1;whiteSpace=wrap;html=1;" parent="TJQuIUuagmnC4SXKTq1S-1" vertex="1">
                    <mxGeometry x="30" y="70" width="70" height="10" as="geometry"/>
                </mxCell>
                <mxCell id="3mEyzAKPt5T8grxcyZEd-17" style="edgeStyle=orthogonalEdgeStyle;rounded=0;orthogonalLoop=1;jettySize=auto;html=1;entryX=0.5;entryY=1;entryDx=0;entryDy=0;" parent="TJQuIUuagmnC4SXKTq1S-1" source="3mEyzAKPt5T8grxcyZEd-4" target="3mEyzAKPt5T8grxcyZEd-14" edge="1">
                    <mxGeometry relative="1" as="geometry"/>
                </mxCell>
                <mxCell id="3mEyzAKPt5T8grxcyZEd-18" value="" style="verticalLabelPosition=bottom;shadow=0;dashed=0;align=center;html=1;verticalAlign=top;strokeWidth=1;shape=mxgraph.mockup.graphics.simpleIcon;strokeColor=#999999;" parent="TJQuIUuagmnC4SXKTq1S-1" vertex="1">
                    <mxGeometry x="60" y="470" width="760" height="410" as="geometry"/>
                </mxCell>
                <mxCell id="On-xOUKq4Zl8b-75dH3n-0" value="" style="strokeWidth=1;shadow=0;dashed=0;align=center;html=1;shape=mxgraph.mockup.containers.marginRect2;rectMarginLeft=67;strokeColor=#666666;gradientColor=none;fontSize=19;" vertex="1" parent="TJQuIUuagmnC4SXKTq1S-1">
                    <mxGeometry x="60" y="940" width="760" height="610" as="geometry"/>
                </mxCell>
                <mxCell id="On-xOUKq4Zl8b-75dH3n-1" value="Tab 1" style="strokeColor=inherit;fillColor=inherit;gradientColor=inherit;strokeWidth=1;shadow=0;dashed=0;align=center;html=1;shape=mxgraph.mockup.containers.rrect;rSize=0;fontSize=17;fontColor=#666666;" vertex="1" parent="On-xOUKq4Zl8b-75dH3n-0">
                    <mxGeometry width="60" height="25" relative="1" as="geometry">
                        <mxPoint y="10" as="offset"/>
                    </mxGeometry>
                </mxCell>
                <mxCell id="On-xOUKq4Zl8b-75dH3n-2" value="Tab 2" style="strokeWidth=1;shadow=0;dashed=0;align=center;html=1;shape=mxgraph.mockup.containers.rrect;rSize=0;fontSize=17;fontColor=#ffffff;strokeColor=#008cff;fillColor=#008cff;" vertex="1" parent="On-xOUKq4Zl8b-75dH3n-0">
                    <mxGeometry width="60" height="25" relative="1" as="geometry">
                        <mxPoint y="40" as="offset"/>
                    </mxGeometry>
                </mxCell>
                <mxCell id="On-xOUKq4Zl8b-75dH3n-3" value="Tab 3" style="strokeColor=inherit;fillColor=inherit;gradientColor=inherit;strokeWidth=1;shadow=0;dashed=0;align=center;html=1;shape=mxgraph.mockup.containers.rrect;rSize=0;fontSize=17;fontColor=#666666;" vertex="1" parent="On-xOUKq4Zl8b-75dH3n-0">
                    <mxGeometry width="60" height="25" relative="1" as="geometry">
                        <mxPoint y="70" as="offset"/>
                    </mxGeometry>
                </mxCell>
                <mxCell id="On-xOUKq4Zl8b-75dH3n-4" value="" style="strokeWidth=1;shadow=0;dashed=0;align=center;html=1;shape=mxgraph.mockup.containers.leftButton;rSize=5;strokeColor=#008cff;fillColor=#008cff;resizeHeight=1;movable=0;deletable=0;" vertex="1" parent="On-xOUKq4Zl8b-75dH3n-0">
                    <mxGeometry width="7" height="610" relative="1" as="geometry">
                        <mxPoint x="60" as="offset"/>
                    </mxGeometry>
                </mxCell>
                <mxCell id="On-xOUKq4Zl8b-75dH3n-5" value="&lt;font style=&quot;font-size: 23px&quot;&gt;Lorem ipsum dolor sit amet, consectetur adipisicing elit, sed do eiusmod tempor incididunt ut labore et dolore magna aliqua. Ut enim ad minim veniam, quis nostrud exercitation ullamco laboris nisi ut aliquip ex ea commodo consequat. Duis aute irure dolor in reprehenderit in voluptate velit esse cillum dolore eu fugiat nulla pariatur. Excepteur sint occaecat cupidatat non proident, sunt in culpa qui officia deserunt mollit anim id est laborum.&lt;br&gt;Sed ut perspiciatis unde omnis iste natus error sit voluptatem accusantium doloremque laudantium, totam rem aperiam, eaque ipsa quae ab illo inventore veritatis et quasi architecto beatae vitae dicta sunt explicabo. Nemo enim ipsam voluptatem quia voluptas sit aspernatur aut odit aut fugit, sed quia consequuntur magni dolores eos qui ratione voluptatem sequi nesciunt. Neque porro quisquam est, qui dolorem ipsum quia dolor sit amet, consectetur, adipisci velit, sed quia non numquam eius modi tempora incidunt ut labore et dolore magnam aliquam quaerat voluptatem. Ut enim ad minima veniam, quis nostrum exercitationem ullam corporis suscipit laboriosam, nisi ut aliquid ex ea commodi consequatur? Quis autem vel eum iure reprehenderit qui in ea voluptate velit esse quam nihil molestiae consequatur, vel illum qui dolorem eum fugiat quo voluptas nulla pariatur?&lt;/font&gt;" style="text;spacingTop=-5;whiteSpace=wrap;html=1;align=left;fontSize=19;fontFamily=Helvetica;fillColor=none;strokeColor=none;" vertex="1" parent="On-xOUKq4Zl8b-75dH3n-0">
                    <mxGeometry x="70.02070393374741" y="11.090909090909092" width="680.5383022774328" height="579.1919191919192" as="geometry"/>
                </mxCell>
            </root>
        </mxGraphModel>
    </diagram>
    <diagram name="phonescreen_2" id="xuuv-YnxOYMLv5-W5RZS">
        <mxGraphModel dx="1238" dy="714" grid="1" gridSize="10" guides="1" tooltips="1" connect="1" arrows="1" fold="1" page="1" pageScale="1" pageWidth="900" pageHeight="1600" math="0" shadow="0">
            <root>
                <mxCell id="n4palLvdj_2pgI68tcb--0"/>
                <mxCell id="n4palLvdj_2pgI68tcb--1" parent="n4palLvdj_2pgI68tcb--0"/>
                <mxCell id="n4palLvdj_2pgI68tcb--2" value="First slide" style="html=1;shadow=0;dashed=0;strokeColor=none;strokeWidth=1;fillColor=#777777;fontColor=#555555;whiteSpace=wrap;align=center;verticalAlign=middle;fontStyle=0;fontSize=40;" vertex="1" parent="n4palLvdj_2pgI68tcb--1">
                    <mxGeometry width="900" height="430" as="geometry"/>
                </mxCell>
                <mxCell id="n4palLvdj_2pgI68tcb--3" value="" style="html=1;verticalLabelPosition=bottom;labelBackgroundColor=#ffffff;verticalAlign=top;shadow=0;dashed=0;strokeWidth=4;shape=mxgraph.ios7.misc.more;strokeColor=#a0a0a0;" vertex="1" parent="n4palLvdj_2pgI68tcb--2">
                    <mxGeometry x="1" y="0.5" width="7" height="14" relative="1" as="geometry">
                        <mxPoint x="-50" y="-7" as="offset"/>
                    </mxGeometry>
                </mxCell>
                <mxCell id="n4palLvdj_2pgI68tcb--4" value="" style="flipH=1;html=1;verticalLabelPosition=bottom;labelBackgroundColor=#ffffff;verticalAlign=top;shadow=0;dashed=0;strokeWidth=4;shape=mxgraph.ios7.misc.more;strokeColor=#a0a0a0;" vertex="1" parent="n4palLvdj_2pgI68tcb--2">
                    <mxGeometry y="0.5" width="7" height="14" relative="1" as="geometry">
                        <mxPoint x="43" y="-7" as="offset"/>
                    </mxGeometry>
                </mxCell>
                <mxCell id="n4palLvdj_2pgI68tcb--5" value="" style="html=1;shadow=0;strokeColor=none;fillColor=#ffffff;" vertex="1" parent="n4palLvdj_2pgI68tcb--2">
                    <mxGeometry x="0.5" y="1" width="30" height="4" relative="1" as="geometry">
                        <mxPoint x="-50" y="-20" as="offset"/>
                    </mxGeometry>
                </mxCell>
                <mxCell id="n4palLvdj_2pgI68tcb--6" value="" style="html=1;shadow=0;strokeColor=none;fillColor=#BBBBBB;" vertex="1" parent="n4palLvdj_2pgI68tcb--2">
                    <mxGeometry x="0.5" y="1" width="30" height="4" relative="1" as="geometry">
                        <mxPoint x="-15" y="-20" as="offset"/>
                    </mxGeometry>
                </mxCell>
                <mxCell id="n4palLvdj_2pgI68tcb--7" value="" style="html=1;shadow=0;strokeColor=none;fillColor=#BBBBBB;" vertex="1" parent="n4palLvdj_2pgI68tcb--2">
                    <mxGeometry x="0.5" y="1" width="30" height="4" relative="1" as="geometry">
                        <mxPoint x="20" y="-20" as="offset"/>
                    </mxGeometry>
                </mxCell>
                <mxCell id="n4palLvdj_2pgI68tcb--8" value="&lt;font style=&quot;font-size: 32px&quot;&gt;Sidebar&lt;br&gt;Menu&lt;/font&gt;" style="text;html=1;strokeColor=none;fillColor=none;align=center;verticalAlign=middle;whiteSpace=wrap;rounded=0;" vertex="1" parent="n4palLvdj_2pgI68tcb--2">
                    <mxGeometry x="120" y="70" width="160" height="90" as="geometry"/>
                </mxCell>
                <mxCell id="n4palLvdj_2pgI68tcb--9" value="" style="rounded=1;whiteSpace=wrap;html=1;" vertex="1" parent="n4palLvdj_2pgI68tcb--2">
                    <mxGeometry x="30" y="30" width="70" height="10" as="geometry"/>
                </mxCell>
                <mxCell id="kA4rxCO511p6w5L4MOe7-0" value="Logo" style="ellipse;whiteSpace=wrap;html=1;shadow=0;dashed=0;fontSize=40;fontColor=#555555;strokeWidth=1;fillColor=#777777;" vertex="1" parent="n4palLvdj_2pgI68tcb--2">
                    <mxGeometry x="320" y="110" width="261" height="177" as="geometry"/>
                </mxCell>
                <mxCell id="n4palLvdj_2pgI68tcb--12" value="" style="rounded=1;whiteSpace=wrap;html=1;" vertex="1" parent="n4palLvdj_2pgI68tcb--1">
                    <mxGeometry x="30" y="50" width="70" height="10" as="geometry"/>
                </mxCell>
                <mxCell id="n4palLvdj_2pgI68tcb--13" value="" style="rounded=1;whiteSpace=wrap;html=1;" vertex="1" parent="n4palLvdj_2pgI68tcb--1">
                    <mxGeometry x="30" y="70" width="70" height="10" as="geometry"/>
                </mxCell>
                <mxCell id="n4palLvdj_2pgI68tcb--14" style="edgeStyle=orthogonalEdgeStyle;rounded=0;orthogonalLoop=1;jettySize=auto;html=1;entryX=0.5;entryY=1;entryDx=0;entryDy=0;" edge="1" parent="n4palLvdj_2pgI68tcb--1" source="n4palLvdj_2pgI68tcb--8" target="n4palLvdj_2pgI68tcb--13">
                    <mxGeometry relative="1" as="geometry"/>
                </mxCell>
                <mxCell id="Re6yDor0d8clgv01swOt-0" value="&lt;b&gt;&lt;font style=&quot;font-size: 20px&quot;&gt;Card title&lt;/font&gt;&lt;/b&gt;&lt;br style=&quot;font-size: 14px&quot;&gt;&lt;br style=&quot;font-size: 14px&quot;&gt;Some quick example text to build on the card title and make up the bulk of the card's content." style="html=1;shadow=0;dashed=0;shape=mxgraph.bootstrap.rrect;rSize=5;strokeColor=#DFDFDF;html=1;whiteSpace=wrap;fillColor=#ffffff;fontColor=#000000;verticalAlign=bottom;align=left;spacing=20;spacingBottom=50;fontSize=14;" vertex="1" parent="n4palLvdj_2pgI68tcb--1">
                    <mxGeometry x="100" y="480" width="720" height="810" as="geometry"/>
                </mxCell>
                <mxCell id="Re6yDor0d8clgv01swOt-1" value="Image cap" style="html=1;shadow=0;dashed=0;shape=mxgraph.bootstrap.topButton;rSize=5;perimeter=none;whiteSpace=wrap;fillColor=#868E96;strokeColor=#DFDFDF;fontColor=#DEE2E6;resizeWidth=1;fontSize=18;" vertex="1" parent="Re6yDor0d8clgv01swOt-0">
                    <mxGeometry width="719.9999999999999" height="180" relative="1" as="geometry"/>
                </mxCell>
                <mxCell id="Re6yDor0d8clgv01swOt-4" value="&lt;b&gt;&lt;font style=&quot;font-size: 20px&quot;&gt;Card title&lt;/font&gt;&lt;/b&gt;&lt;br style=&quot;font-size: 14px&quot;&gt;&lt;br style=&quot;font-size: 14px&quot;&gt;Some quick example text to build on the card title and make up the bulk of the card's content." style="html=1;shadow=0;dashed=0;shape=mxgraph.bootstrap.rrect;rSize=5;strokeColor=#DFDFDF;html=1;whiteSpace=wrap;fillColor=#ffffff;fontColor=#000000;verticalAlign=bottom;align=left;spacing=20;spacingBottom=50;fontSize=14;" vertex="1" parent="n4palLvdj_2pgI68tcb--1">
                    <mxGeometry x="100" y="1360" width="740" height="740" as="geometry"/>
                </mxCell>
                <mxCell id="Re6yDor0d8clgv01swOt-5" value="Image cap" style="html=1;shadow=0;dashed=0;shape=mxgraph.bootstrap.topButton;rSize=5;perimeter=none;whiteSpace=wrap;fillColor=#868E96;strokeColor=#DFDFDF;fontColor=#DEE2E6;resizeWidth=1;fontSize=18;" vertex="1" parent="Re6yDor0d8clgv01swOt-4">
                    <mxGeometry width="739.9999999999999" height="180" relative="1" as="geometry"/>
                </mxCell>
            </root>
        </mxGraphModel>
    </diagram>
    <diagram name="phonescreen_3" id="TlPWj1_s0bboywefCLE_">
        <mxGraphModel dx="1238" dy="714" grid="1" gridSize="10" guides="1" tooltips="1" connect="1" arrows="1" fold="1" page="1" pageScale="1" pageWidth="900" pageHeight="1600" math="0" shadow="0">
            <root>
                <mxCell id="kCU1pDL1svn4J3n5lR_7-0"/>
                <mxCell id="kCU1pDL1svn4J3n5lR_7-1" parent="kCU1pDL1svn4J3n5lR_7-0"/>
                <mxCell id="kCU1pDL1svn4J3n5lR_7-2" value="First slide" style="html=1;shadow=0;dashed=0;strokeColor=none;strokeWidth=1;fillColor=#777777;fontColor=#555555;whiteSpace=wrap;align=center;verticalAlign=middle;fontStyle=0;fontSize=40;" vertex="1" parent="kCU1pDL1svn4J3n5lR_7-1">
                    <mxGeometry width="900" height="430" as="geometry"/>
                </mxCell>
                <mxCell id="kCU1pDL1svn4J3n5lR_7-3" value="" style="html=1;verticalLabelPosition=bottom;labelBackgroundColor=#ffffff;verticalAlign=top;shadow=0;dashed=0;strokeWidth=4;shape=mxgraph.ios7.misc.more;strokeColor=#a0a0a0;" vertex="1" parent="kCU1pDL1svn4J3n5lR_7-2">
                    <mxGeometry x="1" y="0.5" width="7" height="14" relative="1" as="geometry">
                        <mxPoint x="-50" y="-7" as="offset"/>
                    </mxGeometry>
                </mxCell>
                <mxCell id="kCU1pDL1svn4J3n5lR_7-4" value="" style="flipH=1;html=1;verticalLabelPosition=bottom;labelBackgroundColor=#ffffff;verticalAlign=top;shadow=0;dashed=0;strokeWidth=4;shape=mxgraph.ios7.misc.more;strokeColor=#a0a0a0;" vertex="1" parent="kCU1pDL1svn4J3n5lR_7-2">
                    <mxGeometry y="0.5" width="7" height="14" relative="1" as="geometry">
                        <mxPoint x="43" y="-7" as="offset"/>
                    </mxGeometry>
                </mxCell>
                <mxCell id="kCU1pDL1svn4J3n5lR_7-5" value="" style="html=1;shadow=0;strokeColor=none;fillColor=#ffffff;" vertex="1" parent="kCU1pDL1svn4J3n5lR_7-2">
                    <mxGeometry x="0.5" y="1" width="30" height="4" relative="1" as="geometry">
                        <mxPoint x="-50" y="-20" as="offset"/>
                    </mxGeometry>
                </mxCell>
                <mxCell id="kCU1pDL1svn4J3n5lR_7-6" value="" style="html=1;shadow=0;strokeColor=none;fillColor=#BBBBBB;" vertex="1" parent="kCU1pDL1svn4J3n5lR_7-2">
                    <mxGeometry x="0.5" y="1" width="30" height="4" relative="1" as="geometry">
                        <mxPoint x="-15" y="-20" as="offset"/>
                    </mxGeometry>
                </mxCell>
                <mxCell id="kCU1pDL1svn4J3n5lR_7-7" value="" style="html=1;shadow=0;strokeColor=none;fillColor=#BBBBBB;" vertex="1" parent="kCU1pDL1svn4J3n5lR_7-2">
                    <mxGeometry x="0.5" y="1" width="30" height="4" relative="1" as="geometry">
                        <mxPoint x="20" y="-20" as="offset"/>
                    </mxGeometry>
                </mxCell>
                <mxCell id="kCU1pDL1svn4J3n5lR_7-8" value="&lt;font style=&quot;font-size: 32px&quot;&gt;Sidebar&lt;br&gt;Menu&lt;/font&gt;" style="text;html=1;strokeColor=none;fillColor=none;align=center;verticalAlign=middle;whiteSpace=wrap;rounded=0;" vertex="1" parent="kCU1pDL1svn4J3n5lR_7-2">
                    <mxGeometry x="120" y="70" width="160" height="90" as="geometry"/>
                </mxCell>
                <mxCell id="kCU1pDL1svn4J3n5lR_7-9" value="" style="rounded=1;whiteSpace=wrap;html=1;" vertex="1" parent="kCU1pDL1svn4J3n5lR_7-2">
                    <mxGeometry x="30" y="30" width="70" height="10" as="geometry"/>
                </mxCell>
                <mxCell id="kCU1pDL1svn4J3n5lR_7-12" value="" style="rounded=1;whiteSpace=wrap;html=1;" vertex="1" parent="kCU1pDL1svn4J3n5lR_7-1">
                    <mxGeometry x="30" y="50" width="70" height="10" as="geometry"/>
                </mxCell>
                <mxCell id="kCU1pDL1svn4J3n5lR_7-13" value="" style="rounded=1;whiteSpace=wrap;html=1;" vertex="1" parent="kCU1pDL1svn4J3n5lR_7-1">
                    <mxGeometry x="30" y="70" width="70" height="10" as="geometry"/>
                </mxCell>
                <mxCell id="kCU1pDL1svn4J3n5lR_7-14" style="edgeStyle=orthogonalEdgeStyle;rounded=0;orthogonalLoop=1;jettySize=auto;html=1;entryX=0.5;entryY=1;entryDx=0;entryDy=0;" edge="1" parent="kCU1pDL1svn4J3n5lR_7-1" source="kCU1pDL1svn4J3n5lR_7-8" target="kCU1pDL1svn4J3n5lR_7-13">
                    <mxGeometry relative="1" as="geometry"/>
                </mxCell>
                <mxCell id="lb-2FNVXc5hiXofZzFG--0" value="Logo" style="ellipse;whiteSpace=wrap;html=1;shadow=0;dashed=0;fontSize=40;fontColor=#555555;strokeWidth=1;fillColor=#777777;" vertex="1" parent="kCU1pDL1svn4J3n5lR_7-1">
                    <mxGeometry x="320" y="120" width="261" height="177" as="geometry"/>
                </mxCell>
                <mxCell id="Hyi0Aoo1VfDzKcSP8ucJ-1" value="&lt;font style=&quot;font-size: 28px&quot;&gt;Lorem ipsum dolor sit amet, consectetur adipisicing elit, sed do eiusmod tempor incididunt ut labore et dolore magna aliqua. Ut enim ad minim veniam, quis nostrud exercitation ullamco laboris nisi ut aliquip ex ea commodo consequat. Duis aute irure dolor in reprehenderit in voluptate velit esse cillum dolore eu fugiat nulla pariatur. Excepteur sint occaecat cupidatat non proident, sunt in culpa qui officia deserunt mollit anim id est laborum.&lt;br&gt;Sed ut perspiciatis unde omnis iste natus error sit voluptatem accusantium doloremque laudantium, totam rem aperiam, eaque ipsa quae ab illo inventore veritatis et quasi architecto beatae vitae dicta sunt explicabo. Nemo enim ipsam voluptatem quia voluptas sit aspernatur aut odit aut fugit, sed quia consequuntur magni dolores eos qui ratione voluptatem sequi nesciunt. Neque porro quisquam est, qui dolorem ipsum quia dolor sit amet, consectetur, adipisci velit, sed quia non numquam eius modi tempora incidunt ut labore et dolore magnam aliquam quaerat voluptatem.&amp;nbsp;&lt;/font&gt;" style="text;spacingTop=-5;whiteSpace=wrap;html=1;align=left;fontSize=19;fontFamily=Helvetica;fillColor=none;strokeColor=none;" vertex="1" parent="kCU1pDL1svn4J3n5lR_7-1">
                    <mxGeometry x="50" y="900" width="780" height="400" as="geometry"/>
                </mxCell>
                <mxCell id="Hyi0Aoo1VfDzKcSP8ucJ-2" value="" style="verticalLabelPosition=bottom;shadow=0;dashed=0;align=center;html=1;verticalAlign=top;strokeWidth=1;shape=mxgraph.mockup.graphics.simpleIcon;strokeColor=#999999;" vertex="1" parent="kCU1pDL1svn4J3n5lR_7-1">
                    <mxGeometry x="60" y="470" width="770" height="370" as="geometry"/>
                </mxCell>
            </root>
        </mxGraphModel>
    </diagram>
    <diagram id="eZdGWjSpAv_A2ZapK_Lp" name="index_tabletscreen">
        <mxGraphModel dx="1376" dy="793" grid="1" gridSize="10" guides="1" tooltips="1" connect="1" arrows="1" fold="1" page="1" pageScale="1" pageWidth="1600" pageHeight="900" math="0" shadow="0">
            <root>
                <mxCell id="U7KacdB8ExsSLYnHv4Gh-0"/>
                <mxCell id="U7KacdB8ExsSLYnHv4Gh-1" parent="U7KacdB8ExsSLYnHv4Gh-0"/>
                <mxCell id="E5koKaR3VG444mpQ3v0Z-0" value="First slide" style="html=1;shadow=0;dashed=0;strokeColor=none;strokeWidth=1;fillColor=#777777;fontColor=#555555;whiteSpace=wrap;align=center;verticalAlign=middle;fontStyle=0;fontSize=40;container=0;" vertex="1" parent="U7KacdB8ExsSLYnHv4Gh-1">
                    <mxGeometry width="1600" height="430" as="geometry"/>
                </mxCell>
                <mxCell id="E5koKaR3VG444mpQ3v0Z-10" value="" style="rounded=1;whiteSpace=wrap;html=1;" vertex="1" parent="U7KacdB8ExsSLYnHv4Gh-1">
                    <mxGeometry x="30" y="50" width="70" height="10" as="geometry"/>
                </mxCell>
                <mxCell id="E5koKaR3VG444mpQ3v0Z-11" value="" style="rounded=1;whiteSpace=wrap;html=1;" vertex="1" parent="U7KacdB8ExsSLYnHv4Gh-1">
                    <mxGeometry x="30" y="70" width="70" height="10" as="geometry"/>
                </mxCell>
                <mxCell id="E5koKaR3VG444mpQ3v0Z-12" style="edgeStyle=orthogonalEdgeStyle;rounded=0;orthogonalLoop=1;jettySize=auto;html=1;entryX=0.5;entryY=1;entryDx=0;entryDy=0;" edge="1" parent="U7KacdB8ExsSLYnHv4Gh-1" source="E5koKaR3VG444mpQ3v0Z-6" target="E5koKaR3VG444mpQ3v0Z-11">
                    <mxGeometry relative="1" as="geometry"/>
                </mxCell>
                <mxCell id="E5koKaR3VG444mpQ3v0Z-13" value="" style="verticalLabelPosition=bottom;shadow=0;dashed=0;align=center;html=1;verticalAlign=top;strokeWidth=1;shape=mxgraph.mockup.graphics.simpleIcon;strokeColor=#999999;" vertex="1" parent="U7KacdB8ExsSLYnHv4Gh-1">
                    <mxGeometry x="30" y="470" width="760" height="410" as="geometry"/>
                </mxCell>
                <mxCell id="E5koKaR3VG444mpQ3v0Z-1" value="" style="html=1;verticalLabelPosition=bottom;labelBackgroundColor=#ffffff;verticalAlign=top;shadow=0;dashed=0;strokeWidth=4;shape=mxgraph.ios7.misc.more;strokeColor=#a0a0a0;" vertex="1" parent="U7KacdB8ExsSLYnHv4Gh-1">
                    <mxGeometry x="1560" y="216" width="7" height="14" as="geometry">
                        <mxPoint x="-50" y="-7" as="offset"/>
                    </mxGeometry>
                </mxCell>
                <mxCell id="E5koKaR3VG444mpQ3v0Z-2" value="" style="flipH=1;html=1;verticalLabelPosition=bottom;labelBackgroundColor=#ffffff;verticalAlign=top;shadow=0;dashed=0;strokeWidth=4;shape=mxgraph.ios7.misc.more;strokeColor=#a0a0a0;" vertex="1" parent="U7KacdB8ExsSLYnHv4Gh-1">
                    <mxGeometry x="43" y="208" width="7" height="14" as="geometry">
                        <mxPoint x="43" y="-7" as="offset"/>
                    </mxGeometry>
                </mxCell>
                <mxCell id="E5koKaR3VG444mpQ3v0Z-6" value="&lt;font style=&quot;font-size: 32px&quot;&gt;Sidebar&lt;br&gt;Menu&lt;/font&gt;" style="text;html=1;strokeColor=none;fillColor=none;align=center;verticalAlign=middle;whiteSpace=wrap;rounded=0;" vertex="1" parent="U7KacdB8ExsSLYnHv4Gh-1">
                    <mxGeometry x="120" y="70" width="160" height="90" as="geometry"/>
                </mxCell>
                <mxCell id="E5koKaR3VG444mpQ3v0Z-7" value="" style="rounded=1;whiteSpace=wrap;html=1;" vertex="1" parent="U7KacdB8ExsSLYnHv4Gh-1">
                    <mxGeometry x="30" y="30" width="70" height="10" as="geometry"/>
                </mxCell>
                <mxCell id="E5koKaR3VG444mpQ3v0Z-18" value="" style="html=1;shadow=0;strokeColor=none;fillColor=#ffffff;" vertex="1" parent="U7KacdB8ExsSLYnHv4Gh-1">
                    <mxGeometry x="720" y="400" width="30" height="4" as="geometry">
                        <mxPoint x="-50" y="-20" as="offset"/>
                    </mxGeometry>
                </mxCell>
                <mxCell id="E5koKaR3VG444mpQ3v0Z-19" value="" style="html=1;shadow=0;strokeColor=none;fillColor=#BBBBBB;" vertex="1" parent="U7KacdB8ExsSLYnHv4Gh-1">
                    <mxGeometry x="755" y="400" width="30" height="4" as="geometry">
                        <mxPoint x="-15" y="-20" as="offset"/>
                    </mxGeometry>
                </mxCell>
                <mxCell id="E5koKaR3VG444mpQ3v0Z-20" value="" style="html=1;shadow=0;strokeColor=none;fillColor=#BBBBBB;" vertex="1" parent="U7KacdB8ExsSLYnHv4Gh-1">
                    <mxGeometry x="790" y="400" width="30" height="4" as="geometry">
                        <mxPoint x="20" y="-20" as="offset"/>
                    </mxGeometry>
                </mxCell>
                <mxCell id="THU-wqvlGzQqbiKZSY7Q-0" value="" style="strokeWidth=1;shadow=0;dashed=0;align=center;html=1;shape=mxgraph.mockup.containers.marginRect2;rectMarginLeft=67;strokeColor=#666666;gradientColor=none;fontSize=19;" vertex="1" parent="U7KacdB8ExsSLYnHv4Gh-1">
                    <mxGeometry x="820" y="480" width="740" height="380" as="geometry"/>
                </mxCell>
                <mxCell id="THU-wqvlGzQqbiKZSY7Q-1" value="Tab 1" style="strokeColor=inherit;fillColor=inherit;gradientColor=inherit;strokeWidth=1;shadow=0;dashed=0;align=center;html=1;shape=mxgraph.mockup.containers.rrect;rSize=0;fontSize=17;fontColor=#666666;" vertex="1" parent="THU-wqvlGzQqbiKZSY7Q-0">
                    <mxGeometry width="60" height="25" relative="1" as="geometry">
                        <mxPoint y="10" as="offset"/>
                    </mxGeometry>
                </mxCell>
                <mxCell id="THU-wqvlGzQqbiKZSY7Q-2" value="Tab 2" style="strokeWidth=1;shadow=0;dashed=0;align=center;html=1;shape=mxgraph.mockup.containers.rrect;rSize=0;fontSize=17;fontColor=#ffffff;strokeColor=#008cff;fillColor=#008cff;" vertex="1" parent="THU-wqvlGzQqbiKZSY7Q-0">
                    <mxGeometry width="60" height="25" relative="1" as="geometry">
                        <mxPoint y="40" as="offset"/>
                    </mxGeometry>
                </mxCell>
                <mxCell id="THU-wqvlGzQqbiKZSY7Q-3" value="Tab 3" style="strokeColor=inherit;fillColor=inherit;gradientColor=inherit;strokeWidth=1;shadow=0;dashed=0;align=center;html=1;shape=mxgraph.mockup.containers.rrect;rSize=0;fontSize=17;fontColor=#666666;" vertex="1" parent="THU-wqvlGzQqbiKZSY7Q-0">
                    <mxGeometry width="60" height="25" relative="1" as="geometry">
                        <mxPoint y="70" as="offset"/>
                    </mxGeometry>
                </mxCell>
                <mxCell id="THU-wqvlGzQqbiKZSY7Q-4" value="" style="strokeWidth=1;shadow=0;dashed=0;align=center;html=1;shape=mxgraph.mockup.containers.leftButton;rSize=5;strokeColor=#008cff;fillColor=#008cff;resizeHeight=1;movable=0;deletable=0;" vertex="1" parent="THU-wqvlGzQqbiKZSY7Q-0">
                    <mxGeometry width="7" height="380" relative="1" as="geometry">
                        <mxPoint x="60" as="offset"/>
                    </mxGeometry>
                </mxCell>
                <mxCell id="THU-wqvlGzQqbiKZSY7Q-5" value="&lt;font style=&quot;font-size: 23px&quot;&gt;Lorem ipsum dolor sit amet, consectetur adipisicing elit, sed do eiusmod tempor incididunt ut labore et dolore magna aliqua. Ut enim ad minim veniam, quis nostrud exercitation ullamco laboris nisi ut aliquip ex ea commodo consequat. Duis aute irure dolor in reprehenderit in voluptate velit esse cillum dolore eu fugiat nulla pariatur. Excepteur sint occaecat cupidatat non proident, sunt in culpa qui officia deserunt mollit anim id est laborum.&lt;br&gt;Sed ut perspiciatis unde omnis iste natus error sit voluptatem accusantium doloremque laudantium, totam rem aperiam, eaque ipsa quae ab illo inventore veritatis et quasi architecto beatae vitae dicta sunt explicabo. Nemo enim ipsam voluptatem quia voluptas sit aspernatur aut odit aut fugit, sed quia consequuntur magni dolores eos qui ratione voluptatem sequi nesciunt.&amp;nbsp;&lt;/font&gt;" style="text;spacingTop=-5;whiteSpace=wrap;html=1;align=left;fontSize=19;fontFamily=Helvetica;fillColor=none;strokeColor=none;" vertex="1" parent="THU-wqvlGzQqbiKZSY7Q-0">
                    <mxGeometry x="68.17805383022775" y="6.90909090909091" width="662.6293995859213" height="360.80808080808083" as="geometry"/>
                </mxCell>
                <mxCell id="MCAu93mmTLhKyAqTwTvI-0" value="Logo" style="ellipse;whiteSpace=wrap;html=1;shadow=0;dashed=0;fontSize=40;fontColor=#555555;strokeWidth=1;fillColor=#777777;" vertex="1" parent="U7KacdB8ExsSLYnHv4Gh-1">
                    <mxGeometry x="610" y="70" width="360" height="240" as="geometry"/>
                </mxCell>
            </root>
        </mxGraphModel>
    </diagram>
    <diagram name="tabletscreen_2" id="CzQsAkKI5gWRLg-toXDj">
        <mxGraphModel dx="1630" dy="714" grid="1" gridSize="10" guides="1" tooltips="1" connect="1" arrows="1" fold="1" page="1" pageScale="1" pageWidth="1600" pageHeight="900" math="0" shadow="0">
            <root>
                <mxCell id="3E32kqmJWEj_q0InHOYH-0"/>
                <mxCell id="3E32kqmJWEj_q0InHOYH-1" parent="3E32kqmJWEj_q0InHOYH-0"/>
                <mxCell id="3E32kqmJWEj_q0InHOYH-2" value="First slide" style="html=1;shadow=0;dashed=0;strokeColor=none;strokeWidth=1;fillColor=#777777;fontColor=#555555;whiteSpace=wrap;align=center;verticalAlign=middle;fontStyle=0;fontSize=40;container=0;" vertex="1" parent="3E32kqmJWEj_q0InHOYH-1">
                    <mxGeometry width="1600" height="430" as="geometry"/>
                </mxCell>
                <mxCell id="3E32kqmJWEj_q0InHOYH-5" value="" style="rounded=1;whiteSpace=wrap;html=1;" vertex="1" parent="3E32kqmJWEj_q0InHOYH-1">
                    <mxGeometry x="30" y="50" width="70" height="10" as="geometry"/>
                </mxCell>
                <mxCell id="3E32kqmJWEj_q0InHOYH-6" value="" style="rounded=1;whiteSpace=wrap;html=1;" vertex="1" parent="3E32kqmJWEj_q0InHOYH-1">
                    <mxGeometry x="30" y="70" width="70" height="10" as="geometry"/>
                </mxCell>
                <mxCell id="3E32kqmJWEj_q0InHOYH-7" style="edgeStyle=orthogonalEdgeStyle;rounded=0;orthogonalLoop=1;jettySize=auto;html=1;entryX=0.5;entryY=1;entryDx=0;entryDy=0;" edge="1" parent="3E32kqmJWEj_q0InHOYH-1" source="3E32kqmJWEj_q0InHOYH-11" target="3E32kqmJWEj_q0InHOYH-6">
                    <mxGeometry relative="1" as="geometry"/>
                </mxCell>
                <mxCell id="3E32kqmJWEj_q0InHOYH-9" value="" style="html=1;verticalLabelPosition=bottom;labelBackgroundColor=#ffffff;verticalAlign=top;shadow=0;dashed=0;strokeWidth=4;shape=mxgraph.ios7.misc.more;strokeColor=#a0a0a0;" vertex="1" parent="3E32kqmJWEj_q0InHOYH-1">
                    <mxGeometry x="1560" y="216" width="7" height="14" as="geometry">
                        <mxPoint x="-50" y="-7" as="offset"/>
                    </mxGeometry>
                </mxCell>
                <mxCell id="3E32kqmJWEj_q0InHOYH-10" value="" style="flipH=1;html=1;verticalLabelPosition=bottom;labelBackgroundColor=#ffffff;verticalAlign=top;shadow=0;dashed=0;strokeWidth=4;shape=mxgraph.ios7.misc.more;strokeColor=#a0a0a0;" vertex="1" parent="3E32kqmJWEj_q0InHOYH-1">
                    <mxGeometry x="43" y="208" width="7" height="14" as="geometry">
                        <mxPoint x="43" y="-7" as="offset"/>
                    </mxGeometry>
                </mxCell>
                <mxCell id="3E32kqmJWEj_q0InHOYH-11" value="&lt;font style=&quot;font-size: 32px&quot;&gt;Sidebar&lt;br&gt;Menu&lt;/font&gt;" style="text;html=1;strokeColor=none;fillColor=none;align=center;verticalAlign=middle;whiteSpace=wrap;rounded=0;" vertex="1" parent="3E32kqmJWEj_q0InHOYH-1">
                    <mxGeometry x="120" y="70" width="160" height="90" as="geometry"/>
                </mxCell>
                <mxCell id="3E32kqmJWEj_q0InHOYH-12" value="" style="rounded=1;whiteSpace=wrap;html=1;" vertex="1" parent="3E32kqmJWEj_q0InHOYH-1">
                    <mxGeometry x="30" y="30" width="70" height="10" as="geometry"/>
                </mxCell>
                <mxCell id="3E32kqmJWEj_q0InHOYH-13" value="" style="html=1;shadow=0;strokeColor=none;fillColor=#ffffff;" vertex="1" parent="3E32kqmJWEj_q0InHOYH-1">
                    <mxGeometry x="720" y="400" width="30" height="4" as="geometry">
                        <mxPoint x="-50" y="-20" as="offset"/>
                    </mxGeometry>
                </mxCell>
                <mxCell id="3E32kqmJWEj_q0InHOYH-14" value="" style="html=1;shadow=0;strokeColor=none;fillColor=#BBBBBB;" vertex="1" parent="3E32kqmJWEj_q0InHOYH-1">
                    <mxGeometry x="755" y="400" width="30" height="4" as="geometry">
                        <mxPoint x="-15" y="-20" as="offset"/>
                    </mxGeometry>
                </mxCell>
                <mxCell id="3E32kqmJWEj_q0InHOYH-15" value="" style="html=1;shadow=0;strokeColor=none;fillColor=#BBBBBB;" vertex="1" parent="3E32kqmJWEj_q0InHOYH-1">
                    <mxGeometry x="790" y="400" width="30" height="4" as="geometry">
                        <mxPoint x="20" y="-20" as="offset"/>
                    </mxGeometry>
                </mxCell>
                <mxCell id="oEdHzSgVrszMBCZCLqp5-0" value="&lt;b&gt;&lt;font style=&quot;font-size: 20px&quot;&gt;Card title&lt;/font&gt;&lt;/b&gt;&lt;br style=&quot;font-size: 14px&quot;&gt;&lt;br style=&quot;font-size: 14px&quot;&gt;Some quick example text to build on the card title and make up the bulk of the card's content." style="html=1;shadow=0;dashed=0;shape=mxgraph.bootstrap.rrect;rSize=5;strokeColor=#DFDFDF;html=1;whiteSpace=wrap;fillColor=#ffffff;fontColor=#000000;verticalAlign=bottom;align=left;spacing=20;spacingBottom=50;fontSize=14;" vertex="1" parent="3E32kqmJWEj_q0InHOYH-1">
                    <mxGeometry x="210" y="450" width="321" height="439" as="geometry"/>
                </mxCell>
                <mxCell id="oEdHzSgVrszMBCZCLqp5-1" value="Image cap" style="html=1;shadow=0;dashed=0;shape=mxgraph.bootstrap.topButton;rSize=5;perimeter=none;whiteSpace=wrap;fillColor=#868E96;strokeColor=#DFDFDF;fontColor=#DEE2E6;resizeWidth=1;fontSize=18;" vertex="1" parent="oEdHzSgVrszMBCZCLqp5-0">
                    <mxGeometry width="321" height="180" relative="1" as="geometry"/>
                </mxCell>
                <mxCell id="oEdHzSgVrszMBCZCLqp5-2" value="&lt;b&gt;&lt;font style=&quot;font-size: 20px&quot;&gt;Card title&lt;/font&gt;&lt;/b&gt;&lt;br style=&quot;font-size: 14px&quot;&gt;&lt;br style=&quot;font-size: 14px&quot;&gt;Some quick example text to build on the card title and make up the bulk of the card's content." style="html=1;shadow=0;dashed=0;shape=mxgraph.bootstrap.rrect;rSize=5;strokeColor=#DFDFDF;html=1;whiteSpace=wrap;fillColor=#ffffff;fontColor=#000000;verticalAlign=bottom;align=left;spacing=20;spacingBottom=50;fontSize=14;" vertex="1" parent="3E32kqmJWEj_q0InHOYH-1">
                    <mxGeometry x="616.5" y="450" width="321" height="439" as="geometry"/>
                </mxCell>
                <mxCell id="oEdHzSgVrszMBCZCLqp5-3" value="Image cap" style="html=1;shadow=0;dashed=0;shape=mxgraph.bootstrap.topButton;rSize=5;perimeter=none;whiteSpace=wrap;fillColor=#868E96;strokeColor=#DFDFDF;fontColor=#DEE2E6;resizeWidth=1;fontSize=18;" vertex="1" parent="oEdHzSgVrszMBCZCLqp5-2">
                    <mxGeometry width="321" height="180" relative="1" as="geometry"/>
                </mxCell>
                <mxCell id="oEdHzSgVrszMBCZCLqp5-4" value="&lt;b&gt;&lt;font style=&quot;font-size: 20px&quot;&gt;Card title&lt;/font&gt;&lt;/b&gt;&lt;br style=&quot;font-size: 14px&quot;&gt;&lt;br style=&quot;font-size: 14px&quot;&gt;Some quick example text to build on the card title and make up the bulk of the card's content." style="html=1;shadow=0;dashed=0;shape=mxgraph.bootstrap.rrect;rSize=5;strokeColor=#DFDFDF;html=1;whiteSpace=wrap;fillColor=#ffffff;fontColor=#000000;verticalAlign=bottom;align=left;spacing=20;spacingBottom=50;fontSize=14;" vertex="1" parent="3E32kqmJWEj_q0InHOYH-1">
                    <mxGeometry x="1020" y="450" width="321" height="439" as="geometry"/>
                </mxCell>
                <mxCell id="oEdHzSgVrszMBCZCLqp5-5" value="Image cap" style="html=1;shadow=0;dashed=0;shape=mxgraph.bootstrap.topButton;rSize=5;perimeter=none;whiteSpace=wrap;fillColor=#868E96;strokeColor=#DFDFDF;fontColor=#DEE2E6;resizeWidth=1;fontSize=18;" vertex="1" parent="oEdHzSgVrszMBCZCLqp5-4">
                    <mxGeometry width="321" height="180" relative="1" as="geometry"/>
                </mxCell>
                <mxCell id="hZXYBPjzhZj7tt2YK6kY-0" value="Logo" style="ellipse;whiteSpace=wrap;html=1;shadow=0;dashed=0;fontSize=40;fontColor=#555555;strokeWidth=1;fillColor=#777777;" vertex="1" parent="3E32kqmJWEj_q0InHOYH-1">
                    <mxGeometry x="590" y="70" width="360" height="240" as="geometry"/>
                </mxCell>
            </root>
        </mxGraphModel>
    </diagram>
    <diagram name="tabletscreen_3" id="Td3czOUZaseIK0ThhCeu">
        <mxGraphModel dx="557" dy="430" grid="1" gridSize="10" guides="1" tooltips="1" connect="1" arrows="1" fold="1" page="1" pageScale="1" pageWidth="1600" pageHeight="900" math="0" shadow="0">
            <root>
                <mxCell id="LJ7nz0A9u2wFyw5Pdu6g-0"/>
                <mxCell id="LJ7nz0A9u2wFyw5Pdu6g-1" parent="LJ7nz0A9u2wFyw5Pdu6g-0"/>
                <mxCell id="LJ7nz0A9u2wFyw5Pdu6g-2" value="First slide" style="html=1;shadow=0;dashed=0;strokeColor=none;strokeWidth=1;fillColor=#777777;fontColor=#555555;whiteSpace=wrap;align=center;verticalAlign=middle;fontStyle=0;fontSize=40;container=0;" parent="LJ7nz0A9u2wFyw5Pdu6g-1" vertex="1">
                    <mxGeometry width="1600" height="430" as="geometry"/>
                </mxCell>
                <mxCell id="LJ7nz0A9u2wFyw5Pdu6g-5" value="" style="rounded=1;whiteSpace=wrap;html=1;" parent="LJ7nz0A9u2wFyw5Pdu6g-1" vertex="1">
                    <mxGeometry x="30" y="50" width="70" height="10" as="geometry"/>
                </mxCell>
                <mxCell id="LJ7nz0A9u2wFyw5Pdu6g-6" value="" style="rounded=1;whiteSpace=wrap;html=1;" parent="LJ7nz0A9u2wFyw5Pdu6g-1" vertex="1">
                    <mxGeometry x="30" y="70" width="70" height="10" as="geometry"/>
                </mxCell>
                <mxCell id="LJ7nz0A9u2wFyw5Pdu6g-7" style="edgeStyle=orthogonalEdgeStyle;rounded=0;orthogonalLoop=1;jettySize=auto;html=1;entryX=0.5;entryY=1;entryDx=0;entryDy=0;" parent="LJ7nz0A9u2wFyw5Pdu6g-1" source="LJ7nz0A9u2wFyw5Pdu6g-11" target="LJ7nz0A9u2wFyw5Pdu6g-6" edge="1">
                    <mxGeometry relative="1" as="geometry"/>
                </mxCell>
                <mxCell id="LJ7nz0A9u2wFyw5Pdu6g-9" value="" style="html=1;verticalLabelPosition=bottom;labelBackgroundColor=#ffffff;verticalAlign=top;shadow=0;dashed=0;strokeWidth=4;shape=mxgraph.ios7.misc.more;strokeColor=#a0a0a0;" parent="LJ7nz0A9u2wFyw5Pdu6g-1" vertex="1">
                    <mxGeometry x="1560" y="216" width="7" height="14" as="geometry">
                        <mxPoint x="-50" y="-7" as="offset"/>
                    </mxGeometry>
                </mxCell>
                <mxCell id="LJ7nz0A9u2wFyw5Pdu6g-10" value="" style="flipH=1;html=1;verticalLabelPosition=bottom;labelBackgroundColor=#ffffff;verticalAlign=top;shadow=0;dashed=0;strokeWidth=4;shape=mxgraph.ios7.misc.more;strokeColor=#a0a0a0;" parent="LJ7nz0A9u2wFyw5Pdu6g-1" vertex="1">
                    <mxGeometry x="43" y="208" width="7" height="14" as="geometry">
                        <mxPoint x="43" y="-7" as="offset"/>
                    </mxGeometry>
                </mxCell>
                <mxCell id="LJ7nz0A9u2wFyw5Pdu6g-11" value="&lt;font style=&quot;font-size: 32px&quot;&gt;Sidebar&lt;br&gt;Menu&lt;/font&gt;" style="text;html=1;strokeColor=none;fillColor=none;align=center;verticalAlign=middle;whiteSpace=wrap;rounded=0;" parent="LJ7nz0A9u2wFyw5Pdu6g-1" vertex="1">
                    <mxGeometry x="120" y="70" width="160" height="90" as="geometry"/>
                </mxCell>
                <mxCell id="LJ7nz0A9u2wFyw5Pdu6g-12" value="" style="rounded=1;whiteSpace=wrap;html=1;" parent="LJ7nz0A9u2wFyw5Pdu6g-1" vertex="1">
                    <mxGeometry x="30" y="30" width="70" height="10" as="geometry"/>
                </mxCell>
                <mxCell id="LJ7nz0A9u2wFyw5Pdu6g-13" value="" style="html=1;shadow=0;strokeColor=none;fillColor=#ffffff;" parent="LJ7nz0A9u2wFyw5Pdu6g-1" vertex="1">
                    <mxGeometry x="720" y="400" width="30" height="4" as="geometry">
                        <mxPoint x="-50" y="-20" as="offset"/>
                    </mxGeometry>
                </mxCell>
                <mxCell id="LJ7nz0A9u2wFyw5Pdu6g-14" value="" style="html=1;shadow=0;strokeColor=none;fillColor=#BBBBBB;" parent="LJ7nz0A9u2wFyw5Pdu6g-1" vertex="1">
                    <mxGeometry x="755" y="400" width="30" height="4" as="geometry">
                        <mxPoint x="-15" y="-20" as="offset"/>
                    </mxGeometry>
                </mxCell>
                <mxCell id="LJ7nz0A9u2wFyw5Pdu6g-15" value="" style="html=1;shadow=0;strokeColor=none;fillColor=#BBBBBB;" parent="LJ7nz0A9u2wFyw5Pdu6g-1" vertex="1">
                    <mxGeometry x="790" y="400" width="30" height="4" as="geometry">
                        <mxPoint x="20" y="-20" as="offset"/>
                    </mxGeometry>
                </mxCell>
                <mxCell id="U_AuJtDVtIzfHX7j5Wtt-0" value="Logo" style="ellipse;whiteSpace=wrap;html=1;shadow=0;dashed=0;fontSize=40;fontColor=#555555;strokeWidth=1;fillColor=#777777;" parent="LJ7nz0A9u2wFyw5Pdu6g-1" vertex="1">
                    <mxGeometry x="590" y="80" width="360" height="240" as="geometry"/>
                </mxCell>
                <mxCell id="wyrrUXJk48Whyy5d--oz-0" value="Lorem ipsum dolor sit amet, consectetur adipisicing elit, sed do eiusmod tempor incididunt ut labore et dolore magna aliqua. Ut enim ad minim veniam, quis nostrud exercitation ullamco laboris nisi ut aliquip ex ea commodo consequat. Duis aute irure dolor in reprehenderit in voluptate velit esse cillum dolore eu fugiat nulla pariatur. Excepteur sint occaecat cupidatat non proident, sunt in culpa qui officia deserunt mollit anim id est laborum.&#10;Sed ut perspiciatis unde omnis iste natus error sit voluptatem accusantium doloremque laudantium, totam rem aperiam, eaque ipsa quae ab illo inventore veritatis et quasi architecto beatae vitae dicta sunt explicabo. Nemo enim ipsam voluptatem quia voluptas sit aspernatur aut odit aut fugit, sed quia consequuntur magni dolores eos qui ratione voluptatem sequi nesciunt. Neque porro quisquam est, qui dolorem ipsum quia dolor sit amet, consectetur, adipisci velit, sed quia non numquam eius modi tempora incidunt ut labore et dolore magnam aliquam quaerat voluptatem. Ut enim ad minima veniam, quis nostrum exercitationem ullam corporis suscipit laboriosam, nisi ut aliquid ex ea commodi consequatur? Quis autem vel eum iure reprehenderit qui in ea voluptate velit esse quam nihil molestiae consequatur, vel illum qui dolorem eum fugiat quo voluptas nulla pariatur?" style="text;spacingTop=-5;whiteSpace=wrap;html=1;align=left;fontSize=19;fontFamily=Helvetica;fillColor=none;strokeColor=none;" parent="LJ7nz0A9u2wFyw5Pdu6g-1" vertex="1">
                    <mxGeometry x="755" y="450" width="672" height="298" as="geometry"/>
                </mxCell>
                <mxCell id="wyrrUXJk48Whyy5d--oz-1" value="Lorem ipsum dolor sit amet, consectetur adipisicing elit, sed do eiusmod tempor incididunt ut labore et dolore magna aliqua. Ut enim ad minim veniam, quis nostrud exercitation ullamco laboris nisi ut aliquip ex ea commodo consequat. Duis aute irure dolor in reprehenderit in voluptate velit esse cillum dolore eu fugiat nulla pariatur. Excepteur sint occaecat cupidatat non proident, sunt in culpa qui officia deserunt mollit anim id est laborum.&lt;br&gt;Sed ut perspiciatis unde omnis iste natus error sit voluptatem accusantium doloremque laudantium, totam rem aperiam, eaque ipsa quae ab illo inventore veritatis et quasi architecto beatae vitae dicta sunt explicabo. Nemo enim ipsam voluptatem quia voluptas sit aspernatur aut odit aut fugit, sed quia consequuntur magni dolores eos qui ratione voluptatem sequi nesciunt. Neque porro quisquam est, qui dolorem ipsum quia dolor sit amet, consectetur, adipisci velit, sed quia non numquam eius modi tempora incidunt ut labore et dolore magnam aliquam quaerat voluptatem.&amp;nbsp;" style="text;spacingTop=-5;whiteSpace=wrap;html=1;align=left;fontSize=19;fontFamily=Helvetica;fillColor=none;strokeColor=none;" parent="LJ7nz0A9u2wFyw5Pdu6g-1" vertex="1">
                    <mxGeometry x="140" y="920" width="604" height="246" as="geometry"/>
                </mxCell>
                <mxCell id="wyrrUXJk48Whyy5d--oz-2" value="" style="verticalLabelPosition=bottom;shadow=0;dashed=0;align=center;html=1;verticalAlign=top;strokeWidth=1;shape=mxgraph.mockup.graphics.simpleIcon;strokeColor=#999999;" parent="LJ7nz0A9u2wFyw5Pdu6g-1" vertex="1">
                    <mxGeometry x="130" y="470" width="590" height="370" as="geometry"/>
                </mxCell>
                <mxCell id="wyrrUXJk48Whyy5d--oz-3" value="" style="verticalLabelPosition=bottom;shadow=0;dashed=0;align=center;html=1;verticalAlign=top;strokeWidth=1;shape=mxgraph.mockup.graphics.simpleIcon;strokeColor=#999999;" parent="LJ7nz0A9u2wFyw5Pdu6g-1" vertex="1">
                    <mxGeometry x="780" y="910" width="590" height="380" as="geometry"/>
                </mxCell>
            </root>
        </mxGraphModel>
    </diagram>
</mxfile>